<svg xmlns="http://www.w3.org/2000/svg" viewBox="0 0 64 64">
  <path
    d="M9 41c-4.5-9.6 0.3-21.4 10.9-26.6 9.7-4.7 22.5-4.4 30.9 2.3 6.2 5 9 12 6.7 18.3l6.2-1.1-3.2 8.6 7 1.3-8.3 6.1c-6.4 4.7-15.6 6.7-24.7 4.2-11.4-3.1-20.7-7.3-25.5-13.1z"
    fill="#5fae4f"
  />
  <path
    d="M17 39.5c-2.6-6.7 0.9-14.3 7.8-17.5 6.7-3.1 15-1.8 19 2.7 3.1 3.5 3.9 8 1.3 11.5-4.3 5.8-12.9 8.6-20.4 6.9-4.1-0.9-6.9-2.2-7.7-3.6z"
    fill="#8fd67e"
    opacity="0.55"
  />
  <path d="M23 16 18.5 4 28 13z" fill="#3f7a34" />
  <path d="M33.5 12.5 31 1 40 10.5z" fill="#3f7a34" />
  <path d="M42 17 48.5 10 47 20z" fill="#3f7a34" />
  <path d="M49 23.5 57 18 54.5 28z" fill="#3f7a34" />
  <circle cx="25.5" cy="27" r="4.4" fill="#fff" />
  <circle cx="26.8" cy="27" r="2.3" fill="#20321c" />
  <ellipse cx="11.5" cy="35.5" rx="1.8" ry="1.1" fill="#20321c" transform="rotate(-18 11.5 35.5)" />
</svg>
